<?xml version="1.0" encoding="UTF-8" standalone="no"?>
<svg
   viewBox="-25.14 -16.14 170 170"
   version="1.1"
   id="svg4"
   sodipodi:docname="monochrome.svg"
   width="170"
   height="170"
   inkscape:version="1.4.2 (ebf0e940d0, 2025-05-08)"
   inkscape:export-filename="monochrome-white.png"
   inkscape:export-xdpi="578.25885"
   inkscape:export-ydpi="578.25885"
   xmlns:inkscape="http://www.inkscape.org/namespaces/inkscape"
   xmlns:sodipodi="http://sodipodi.sourceforge.net/DTD/sodipodi-0.dtd"
   xmlns="http://www.w3.org/2000/svg"
   xmlns:svg="http://www.w3.org/2000/svg">
  <sodipodi:namedview
     id="namedview4"
     pagecolor="#505050"
     bordercolor="#eeeeee"
     borderopacity="1"
     inkscape:showpageshadow="0"
     inkscape:pageopacity="0"
     inkscape:pagecheckerboard="0"
     inkscape:deskcolor="#505050"
     inkscape:zoom="2.6823529"
     inkscape:cx="62.072369"
     inkscape:cy="47.905702"
     inkscape:window-width="2144"
     inkscape:window-height="1206"
     inkscape:window-x="0"
     inkscape:window-y="0"
     inkscape:window-maximized="1"
     inkscape:current-layer="svg4" />
  <defs
     id="defs1">
    <style
       id="style1">
      .cls-1,.cls-3,.cls-4{fill:none;stroke:#0fbc2f;stroke-linecap:round;}.cls-1,.cls-3{stroke-linejoin:round;}.cls-1{stroke-width:5.91px;}.cls-2{fill:#0fbc2f;}.cls-3,.cls-4{stroke-width:2.15px;}.cls-4{stroke-miterlimit:10;}
    </style>
  </defs>
  <path
     id="circle1"
     style="display:inline;fill:#000000;fill-opacity:1"
     inkscape:label="Logo"
     d="M 59.86 -16.14 A 85 85 0 0 0 -25.14 68.86 A 85 85 0 0 0 59.86 153.86 A 85 85 0 0 0 144.86 68.86 A 85 85 0 0 0 59.86 -16.14 z M 60.420547 0.002578125 C 61.680963 0.002578125 62.941891 0.33490181 64.063125 0.99671875 L 116.70375 31.279922 A 2.9552954 2.9552954 0 0 1 116.80336 31.338516 C 119.38034 32.957607 120.91826 35.822781 120.84633 38.861953 L 120.84633 98.236953 L 120.84633 98.244766 C 120.91547 101.28103 119.37813 104.14464 116.80336 105.76234 A 2.9552954 2.9552954 0 0 1 116.7057 105.82094 L 64.063125 136.14516 C 61.820658 137.4688 59.020436 137.4688 56.777969 136.14516 L 4.1353906 105.82094 A 2.9552954 2.9552954 0 0 1 4.031875 105.75844 C 1.4442427 104.12166 -0.091711665 101.2269 0.006484375 98.166641 L 0.006484375 38.975234 C -0.091711665 35.914965 1.4442427 33.020218 4.031875 31.383437 A 2.9552954 2.9552954 0 0 1 4.1353906 31.320937 L 56.805312 0.97914062 L 56.777969 0.99671875 C 57.899202 0.33490181 59.16013 0.002578115 60.420547 0.002578125 z M 60.420547 5.906875 C 60.200719 5.906875 59.980891 5.9671389 59.781875 6.0846094 A 2.9552954 2.9552954 0 0 1 59.756484 6.1002344 L 7.1803125 36.387344 C 6.3619537 36.91087 5.8835045 37.813979 5.9146875 38.785781 A 2.9552954 2.9552954 0 0 1 5.9146875 38.881484 L 5.9146875 98.260391 A 2.9552954 2.9552954 0 0 1 5.9146875 98.356094 C 5.8834436 99.329808 6.3629039 100.23343 7.1842187 100.75648 L 59.756484 131.03969 A 2.9552954 2.9552954 0 0 1 59.781875 131.05531 C 60.179906 131.29025 60.661188 131.29025 61.059219 131.05531 A 2.9552954 2.9552954 0 0 1 61.086562 131.03969 L 113.66273 100.75258 C 114.48584 100.23246 114.96737 99.329685 114.93617 98.356094 A 2.9552954 2.9552954 0 0 1 114.93617 98.260391 L 114.93617 38.840469 A 2.9552954 2.9552954 0 0 1 114.93617 38.746719 C 114.96727 37.775039 114.48679 36.872802 113.66664 36.352187 L 61.086562 6.1021875 A 2.9552954 2.9552954 0 0 1 61.059219 6.0846094 C 60.860203 5.9671389 60.640375 5.906875 60.420547 5.906875 z M 59.412734 13.596328 C 59.458606 13.592681 59.504219 13.593125 59.549453 13.596328 C 60.092266 13.634766 60.570937 14.155 60.570937 14.86 L 60.570937 67.789687 A 1.31 1.31 0 0 0 61.180312 68.920547 L 67.180312 72.410781 A 1.35 1.35 0 0 1 67.180312 74.660781 L 32.479141 94.660781 A 1.36 1.36 0 0 0 32.479141 96.920547 L 60.000625 112.78969 A 1 1 0 0 0 61.000625 112.78969 L 98.629531 91.100234 A 1 1 0 0 1 99.629531 91.100234 L 106.94008 95.299453 A 1.36 1.36 0 0 1 106.96937 97.559219 L 61.049453 124.00062 A 1 1 0 0 1 60.049453 124.00062 L 12.770156 96.770156 A 1.27 1.27 0 0 1 12.170547 95.649062 L 12.170547 41.449844 A 1.3 1.3 0 0 1 12.770156 40.320937 L 59.000625 13.729141 C 59.135625 13.650391 59.27512 13.607271 59.412734 13.596328 z M 85.178359 25.904922 A 1 1 0 0 1 86.149062 26.580703 L 99.410781 55.090469 C 99.960781 56.170469 98.959609 57.359219 97.959609 56.809219 L 95.899062 55.619766 C 95.179063 55.199766 94.330703 55.810625 94.330703 56.750625 L 94.330703 85.36 A 1.31 1.31 0 0 1 93.719375 86.490859 L 61.000625 105.3893 A 0.94 0.94 0 0 1 60.000625 105.3893 L 45.170547 96.869766 A 1.35 1.35 0 0 1 45.170547 94.61 L 76.420547 76.61 A 1.3 1.3 0 0 0 77.020156 75.479141 L 77.020156 45.430312 A 1.27 1.27 0 0 0 76.420547 44.309219 L 72.260391 41.879531 A 1.36 1.36 0 0 1 72.000625 39.840469 L 84.440078 26.260391 A 1 1 0 0 1 85.178359 25.904922 z M 55.395156 26.26625 A 1.11 1.11 0 0 0 54.940078 26.369766 L 19.11 46.520156 A 1.29 1.29 0 0 0 18.500625 47.649062 L 18.500625 79.820937 C 18.500625 80.750938 19.339219 81.360625 20.059219 81.000625 L 55.889297 61.080703 A 1.29 1.29 0 0 0 56.510391 59.940078 L 56.510391 27.500625 A 1.11 1.11 0 0 0 55.395156 26.26625 z M 22.838516 49.664687 A 1.075 1.075 0 0 1 23.375625 49.815078 L 33.315078 55.664687 A 1.0751075 1.0751075 0 0 1 33.365859 55.693984 C 34.550291 56.480124 34.809463 58.156486 33.918594 59.264297 L 23.674453 72.256484 A 1.075 1.075 0 0 1 22.164687 72.434219 A 1.075 1.075 0 0 1 21.986953 70.924453 L 32.236953 57.924453 A 1.0751075 1.0751075 0 0 1 32.242812 57.916641 C 32.362091 57.768313 32.334993 57.592211 32.176406 57.486953 L 22.285781 51.666641 A 1.075 1.075 0 0 1 21.904922 50.195937 A 1.075 1.075 0 0 1 22.561172 49.699844 A 1.075 1.075 0 0 1 22.838516 49.664687 z M 52.438125 56.815078 A 1.075 1.075 0 0 1 52.715469 56.856094 A 1.075 1.075 0 0 1 53.36 57.367812 A 1.075 1.075 0 0 1 52.942031 58.830703 L 41.242812 65.330703 A 1.075 1.075 0 0 1 39.781875 64.912734 A 1.075 1.075 0 0 1 40.197891 63.451797 L 51.899062 56.951797 A 1.075 1.075 0 0 1 52.438125 56.815078 z " />
</svg>
