<svg id="Layer_1" data-name="Layer 1" xmlns="http://www.w3.org/2000/svg" viewBox="0 0 171.8 195.11"><defs><style>.cls-1,.cls-3{fill:none;stroke:#ecb148;stroke-miterlimit:10;}.cls-1{stroke-width:7px;}.cls-2{fill:#5f94ce;}.cls-3{stroke-linecap:round;stroke-width:4px;}</style></defs><g id="Tall"><path id="Hexagon" class="cls-1" d="M82.83,4.34,7.31,47.85A8.14,8.14,0,0,0,3.5,55v85.19a8.14,8.14,0,0,0,3.81,7.11l75.52,43.51a6,6,0,0,0,6.14,0l75.52-43.51a8.12,8.12,0,0,0,3.81-7.11V55a8.12,8.12,0,0,0-3.81-7.11L89,4.34A6,6,0,0,0,82.83,4.34Z"/><path id="Arrow" class="cls-2" d="M103.6,57.67l6.23,3.63a1.93,1.93,0,0,1,.9,1.68v44.94a1.93,1.93,0,0,1-.91,1.69L63.09,136.52a2,2,0,0,0,0,3.37l22.15,12.76a1.46,1.46,0,0,0,1.46,0l48.93-28.27a1.93,1.93,0,0,0,.9-1.68V79.9a1.65,1.65,0,0,1,2.36-1.68L142,80c1.42.82,2.91-1,2.16-2.58L124.37,34.79a1.51,1.51,0,0,0-2.55-.48L103.21,54.62A2,2,0,0,0,103.6,57.67Z"/><path id="Arrow-2" data-name="Arrow" class="cls-3" d="M29.68,70.92l14.86,8.75a2.06,2.06,0,0,1,.47,3L29.68,102"/><line class="cls-3" x1="56.44" y1="91.33" x2="73.93" y2="81.62"/><path class="cls-2" d="M155.47,137.56l-10.93-6.28a1.46,1.46,0,0,0-1.46,0L86.8,163.72a1.46,1.46,0,0,1-1.46,0L44.12,140a2,2,0,0,1,0-3.37L96,106.71a2,2,0,0,0,0-3.37l-9-5.22a1.94,1.94,0,0,1-.9-1.69V17.25a1.65,1.65,0,0,0-2.36-1.68L14.64,55.34a1.94,1.94,0,0,0-.9,1.69v81.05a1.94,1.94,0,0,0,.9,1.69l70.7,40.71a1.46,1.46,0,0,0,1.46,0l68.67-39.55A2,2,0,0,0,155.47,137.56ZM23.21,114.41V66.3a1.93,1.93,0,0,1,.91-1.69L77.7,34.48a1.66,1.66,0,0,1,2.35,1.69L80,84.68a1.93,1.93,0,0,1-.93,1.7L25.54,116.11A1.65,1.65,0,0,1,23.21,114.41Z"/></g></svg>