<svg id="Layer_1" data-name="Layer 1" xmlns="http://www.w3.org/2000/svg" viewBox="0 0 242.21 242.21"><defs><style>.cls-1{fill:#17171d;}.cls-2,.cls-4{fill:none;stroke:#ecb148;stroke-miterlimit:10;}.cls-2{stroke-width:7px;}.cls-3{fill:#5f94ce;}.cls-4{stroke-linecap:round;stroke-width:4px;}</style></defs><g id="Tall"><rect class="cls-1" width="242.21" height="242.21" rx="44.44"/><path id="Hexagon" class="cls-2" d="M118,27.89,42.51,71.4a8.14,8.14,0,0,0-3.81,7.11V163.7a8.14,8.14,0,0,0,3.81,7.11L118,214.32a6,6,0,0,0,6.14,0l75.52-43.51a8.14,8.14,0,0,0,3.81-7.11V78.51a8.14,8.14,0,0,0-3.81-7.11L124.18,27.89A6,6,0,0,0,118,27.89Z"/><path id="Arrow" class="cls-3" d="M138.8,81.22,145,84.85a1.93,1.93,0,0,1,.9,1.68v44.94a1.94,1.94,0,0,1-.9,1.69L98.29,160.07a2,2,0,0,0,0,3.37l22.16,12.76a1.45,1.45,0,0,0,1.45,0l48.93-28.27a1.91,1.91,0,0,0,.91-1.68v-42.8c0-1.4,1.27-2.31,2.35-1.68l3.08,1.78c1.42.82,2.92-1,2.17-2.58L159.58,58.34a1.51,1.51,0,0,0-2.56-.48l-18.6,20.31A2.05,2.05,0,0,0,138.8,81.22Z"/><path id="Arrow-2" data-name="Arrow" class="cls-4" d="M64.89,94.47l14.86,8.75a2,2,0,0,1,.46,3L64.89,125.58"/><line class="cls-4" x1="91.65" y1="114.88" x2="109.14" y2="105.17"/><path class="cls-3" d="M190.67,161.11l-10.93-6.28a1.45,1.45,0,0,0-1.45,0L122,187.27a1.45,1.45,0,0,1-1.45,0L79.32,163.53a2,2,0,0,1,0-3.37l51.9-29.9a2,2,0,0,0,0-3.37l-9-5.22a1.93,1.93,0,0,1-.9-1.68V40.8a1.65,1.65,0,0,0-2.35-1.68L49.85,78.89a1.94,1.94,0,0,0-.9,1.69v81.05a1.94,1.94,0,0,0,.9,1.69L120.55,204a1.45,1.45,0,0,0,1.45,0l68.67-39.55A2,2,0,0,0,190.67,161.11ZM58.41,138V89.85a1.93,1.93,0,0,1,.92-1.69L112.91,58a1.65,1.65,0,0,1,2.34,1.69l-.07,48.51a1.94,1.94,0,0,1-.92,1.7L60.75,139.66A1.66,1.66,0,0,1,58.41,138Z"/></g></svg>