<?xml version="1.0" encoding="UTF-8" standalone="no"?>
<svg
   viewBox="-5.14 3.86 130 130"
   version="1.1"
   id="svg3"
   sodipodi:docname="hq_bg-black_border-none.svg"
   inkscape:version="1.3.2 (091e20e, 2023-11-25, custom)"
   xmlns:inkscape="http://www.inkscape.org/namespaces/inkscape"
   xmlns:sodipodi="http://sodipodi.sourceforge.net/DTD/sodipodi-0.dtd"
   xmlns="http://www.w3.org/2000/svg"
   xmlns:svg="http://www.w3.org/2000/svg">
  <sodipodi:namedview
     id="namedview3"
     pagecolor="#505050"
     bordercolor="#eeeeee"
     borderopacity="1"
     inkscape:showpageshadow="0"
     inkscape:pageopacity="0"
     inkscape:pagecheckerboard="0"
     inkscape:deskcolor="#505050"
     inkscape:zoom="14.030769"
     inkscape:cx="65"
     inkscape:cy="65"
     inkscape:window-width="3731"
     inkscape:window-height="2120"
     inkscape:window-x="-12"
     inkscape:window-y="-12"
     inkscape:window-maximized="1"
     inkscape:current-layer="svg3" />
  <defs
     id="defs1">
    <style
       id="style1">
      .cls-1,.cls-3,.cls-4{fill:none;stroke:#0fbc2f;stroke-linecap:round;}.cls-1,.cls-3{stroke-linejoin:round;}.cls-1{stroke-width:5.91px;}.cls-2{fill:#0fbc2f;}.cls-3,.cls-4{stroke-width:2.15px;}.cls-4{stroke-miterlimit:10;}
    </style>
  </defs>
  <circle
     cx="59.86"
     cy="68.86"
     r="65"
     id="circle1"
     inkscape:label="Background" />
  <g
     id="g3"
     inkscape:label="Logo">
    <g
       id="g4"
       inkscape:label="Laptop">
      <path
         class="cls-2"
         d="M72.26,41.88l4.16,2.43a1.27,1.27,0,0,1,.6,1.12V75.48a1.3,1.3,0,0,1-.6,1.13l-31.25,18a1.35,1.35,0,0,0,0,2.26L60,105.39a.94.94,0,0,0,1,0l32.72-18.9a1.31,1.31,0,0,0,.61-1.13V56.75c0-.94.85-1.55,1.57-1.13l2.06,1.19c1,.55,2-.64,1.45-1.72L86.15,26.58a1,1,0,0,0-1.71-.32L72,39.84A1.36,1.36,0,0,0,72.26,41.88Z"
         id="path1" />
      <path
         class="cls-3"
         d="M22.83,50.74l9.94,5.85a1.37,1.37,0,0,1,.31,2l-10.25,13"
         id="path2" />
      <line
         class="cls-4"
         x1="40.72"
         y1="64.39"
         x2="52.42"
         y2="57.89"
         id="line2" />
      <path
         class="cls-2"
         d="m 106.94,95.3 -7.31,-4.2 a 1,1 0 0 0 -1,0 L 61,112.79 a 1,1 0 0 1 -1,0 L 32.48,96.92 a 1.36,1.36 0 0 1 0,-2.26 l 34.7,-20 a 1.35,1.35 0 0 0 0,-2.25 l -6,-3.49 A 1.31,1.31 0 0 1 60.57,67.79 V 14.86 c 0,-0.94 -0.85,-1.55 -1.57,-1.13 L 12.77,40.32 a 1.3,1.3 0 0 0 -0.6,1.13 v 54.2 a 1.27,1.27 0 0 0 0.6,1.12 L 60.05,124 a 1,1 0 0 0 1,0 L 106.97,97.56 A 1.36,1.36 0 0 0 106.94,95.3 Z M 18.5,79.82 V 47.65 a 1.29,1.29 0 0 1 0.61,-1.13 L 54.94,26.37 a 1.11,1.11 0 0 1 1.57,1.13 v 32.44 a 1.29,1.29 0 0 1 -0.62,1.14 L 20.06,81 C 19.34,81.36 18.5,80.75 18.5,79.82 Z"
         id="path3"
         style="display:inline" />
    </g>
  </g>
</svg>
