<?xml version="1.0" encoding="UTF-8" standalone="no"?>
<svg
   viewBox="0 0 120.85 137.14"
   version="1.1"
   id="svg4"
   sodipodi:docname="hq_bg-none_border.svg"
   inkscape:version="1.3.2 (091e20e, 2023-11-25, custom)"
   xmlns:inkscape="http://www.inkscape.org/namespaces/inkscape"
   xmlns:sodipodi="http://sodipodi.sourceforge.net/DTD/sodipodi-0.dtd"
   xmlns="http://www.w3.org/2000/svg"
   xmlns:svg="http://www.w3.org/2000/svg">
  <sodipodi:namedview
     id="namedview4"
     pagecolor="#505050"
     bordercolor="#eeeeee"
     borderopacity="1"
     inkscape:showpageshadow="0"
     inkscape:pageopacity="0"
     inkscape:pagecheckerboard="0"
     inkscape:deskcolor="#505050"
     inkscape:zoom="13.300277"
     inkscape:cx="60.449868"
     inkscape:cy="68.57"
     inkscape:window-width="3731"
     inkscape:window-height="2120"
     inkscape:window-x="-12"
     inkscape:window-y="-12"
     inkscape:window-maximized="1"
     inkscape:current-layer="g5" />
  <defs
     id="defs1">
    <style
       id="style1">
      .cls-1,.cls-3,.cls-4{fill:none;stroke:#0fbc2f;stroke-linecap:round;}.cls-1,.cls-3{stroke-linejoin:round;}.cls-1{stroke-width:5.91px;}.cls-2{fill:#0fbc2f;}.cls-3,.cls-4{stroke-width:2.15px;}.cls-4{stroke-miterlimit:10;}
    </style>
  </defs>
  <g
     id="g4"
     inkscape:label="Logo">
    <path
       class="cls-1"
       d="M 58.28,3.54 5.61,33.88 a 5.7,5.7 0 0 0 -2.65,5 v 59.38 a 5.7,5.7 0 0 0 2.65,5 l 52.67,30.34 a 4.21,4.21 0 0 0 4.28,0 l 52.67,-30.34 a 5.69,5.69 0 0 0 2.66,-5 V 38.84 a 5.69,5.69 0 0 0 -2.66,-5 L 62.56,3.54 a 4.21,4.21 0 0 0 -4.28,0 z"
       id="path1"
       style="display:inline"
       inkscape:label="Border" />
    <g
       id="g5"
       inkscape:label="Laptop">
      <path
         class="cls-2"
         d="m 72.26,41.88 4.16,2.43 a 1.27,1.27 0 0 1 0.6,1.12 v 30.05 a 1.3,1.3 0 0 1 -0.6,1.13 l -31.25,18 a 1.35,1.35 0 0 0 0,2.26 L 60,105.39 a 0.94,0.94 0 0 0 1,0 l 32.72,-18.9 a 1.31,1.31 0 0 0 0.61,-1.13 V 56.75 c 0,-0.94 0.85,-1.55 1.57,-1.13 l 2.06,1.19 c 1,0.55 2,-0.64 1.45,-1.72 L 86.15,26.58 A 1,1 0 0 0 84.44,26.26 L 72,39.84 a 1.36,1.36 0 0 0 0.26,2.04 z"
         id="path2"
         style="display:inline" />
      <path
         class="cls-3"
         d="M22.83,50.74l9.94,5.85a1.37,1.37,0,0,1,.31,2l-10.25,13"
         id="path3" />
      <line
         class="cls-4"
         x1="40.72"
         y1="64.39"
         x2="52.42"
         y2="57.89"
         id="line3" />
      <path
         class="cls-2"
         d="m 106.94,95.3 -7.31,-4.2 a 1,1 0 0 0 -1,0 L 61,112.79 a 1,1 0 0 1 -1,0 L 32.48,96.92 a 1.36,1.36 0 0 1 0,-2.26 l 34.7,-20 a 1.35,1.35 0 0 0 0,-2.25 l -6,-3.49 A 1.31,1.31 0 0 1 60.57,67.79 V 14.86 c 0,-0.94 -0.85,-1.55 -1.57,-1.13 L 12.77,40.32 a 1.3,1.3 0 0 0 -0.6,1.13 v 54.2 a 1.27,1.27 0 0 0 0.6,1.12 L 60.05,124 a 1,1 0 0 0 1,0 L 106.97,97.56 A 1.36,1.36 0 0 0 106.94,95.3 Z M 18.5,79.82 V 47.65 a 1.29,1.29 0 0 1 0.61,-1.13 L 54.94,26.37 a 1.11,1.11 0 0 1 1.57,1.13 v 32.44 a 1.29,1.29 0 0 1 -0.62,1.14 L 20.06,81 C 19.34,81.36 18.5,80.75 18.5,79.82 Z"
         id="path4"
         style="display:inline" />
    </g>
  </g>
</svg>
