<?xml version="1.0" encoding="UTF-8" standalone="no"?>
<svg
   viewBox="-25.14 -16.14 170 170"
   version="1.1"
   id="svg4"
   sodipodi:docname="uf_new.svg"
   width="170"
   height="170"
   inkscape:version="1.3.2 (091e20e, 2023-11-25, custom)"
   xmlns:inkscape="http://www.inkscape.org/namespaces/inkscape"
   xmlns:sodipodi="http://sodipodi.sourceforge.net/DTD/sodipodi-0.dtd"
   xmlns="http://www.w3.org/2000/svg"
   xmlns:svg="http://www.w3.org/2000/svg">
  <sodipodi:namedview
     id="namedview4"
     pagecolor="#505050"
     bordercolor="#eeeeee"
     borderopacity="1"
     inkscape:showpageshadow="0"
     inkscape:pageopacity="0"
     inkscape:pagecheckerboard="0"
     inkscape:deskcolor="#505050"
     inkscape:zoom="10.729412"
     inkscape:cx="87.609649"
     inkscape:cy="103.08114"
     inkscape:window-width="3731"
     inkscape:window-height="2120"
     inkscape:window-x="-12"
     inkscape:window-y="-12"
     inkscape:window-maximized="1"
     inkscape:current-layer="g4" />
  <defs
     id="defs1">
    <style
       id="style1">
      .cls-1,.cls-3,.cls-4{fill:none;stroke:#0fbc2f;stroke-linecap:round;}.cls-1,.cls-3{stroke-linejoin:round;}.cls-1{stroke-width:5.91px;}.cls-2{fill:#0fbc2f;}.cls-3,.cls-4{stroke-width:2.15px;}.cls-4{stroke-miterlimit:10;}
    </style>
  </defs>
  <circle
     cx="59.860001"
     cy="68.860001"
     r="85"
     id="circle1"
     inkscape:label="Background"
     style="fill:#17171d" />
  <g
     id="g4"
     style="display:inline"
     inkscape:label="Logo">
    <path
       class="cls-1"
       d="M 58.28,3.54 5.61,33.88 a 5.7,5.7 0 0 0 -2.65,5 v 59.38 a 5.7,5.7 0 0 0 2.65,5 l 52.67,30.34 a 4.21,4.21 0 0 0 4.28,0 l 52.67,-30.34 a 5.69,5.69 0 0 0 2.66,-5 V 38.84 a 5.69,5.69 0 0 0 -2.66,-5 L 62.56,3.54 a 4.21,4.21 0 0 0 -4.28,0 z"
       id="path1"
       style="display:inline;fill:#000000;fill-opacity:0"
       inkscape:label="Border" />
    <g
       id="g5"
       inkscape:label="Laptop">
      <path
         class="cls-2"
         d="m 72.26,41.88 4.16,2.43 a 1.27,1.27 0 0 1 0.6,1.12 v 30.05 a 1.3,1.3 0 0 1 -0.6,1.13 l -31.25,18 a 1.35,1.35 0 0 0 0,2.26 L 60,105.39 a 0.94,0.94 0 0 0 1,0 l 32.72,-18.9 a 1.31,1.31 0 0 0 0.61,-1.13 V 56.75 c 0,-0.94 0.85,-1.55 1.57,-1.13 l 2.06,1.19 c 1,0.55 2,-0.64 1.45,-1.72 L 86.15,26.58 A 1,1 0 0 0 84.44,26.26 L 72,39.84 a 1.36,1.36 0 0 0 0.26,2.04 z"
         id="path2"
         style="display:inline" />
      <path
         class="cls-3"
         d="m 22.83,50.74 9.94,5.85 a 1.37,1.37 0 0 1 0.31,2 l -10.25,13"
         id="path3"
         style="display:inline" />
      <line
         class="cls-4"
         x1="40.720001"
         y1="64.389999"
         x2="52.419998"
         y2="57.889999"
         id="line3"
         style="display:inline" />
      <path
         class="cls-2"
         d="m 106.94,95.3 -7.31,-4.2 a 1,1 0 0 0 -1,0 L 61,112.79 a 1,1 0 0 1 -1,0 L 32.48,96.92 a 1.36,1.36 0 0 1 0,-2.26 l 34.7,-20 a 1.35,1.35 0 0 0 0,-2.25 l -6,-3.49 A 1.31,1.31 0 0 1 60.57,67.79 V 14.86 c 0,-0.94 -0.85,-1.55 -1.57,-1.13 L 12.77,40.32 a 1.3,1.3 0 0 0 -0.6,1.13 v 54.2 a 1.27,1.27 0 0 0 0.6,1.12 L 60.05,124 a 1,1 0 0 0 1,0 L 106.97,97.56 A 1.36,1.36 0 0 0 106.94,95.3 Z M 18.5,79.82 V 47.65 a 1.29,1.29 0 0 1 0.61,-1.13 L 54.94,26.37 a 1.11,1.11 0 0 1 1.57,1.13 v 32.44 a 1.29,1.29 0 0 1 -0.62,1.14 L 20.06,81 C 19.34,81.36 18.5,80.75 18.5,79.82 Z"
         id="path4"
         style="display:inline" />
    </g>
    <path
       style="fill:#ecb148;fill-opacity:1;stroke-width:0.0932018"
       d="m 84.639098,153.17401 c -0.677821,-0.0928 -1.639207,-0.38601 -2.195553,-0.66957 -0.967649,-0.49321 -53.199281,-30.62208 -53.698126,-30.9748 -0.832871,-0.58889 -1.883406,-1.75504 -2.394299,-2.65778 -0.557149,-0.98449 -0.968739,-2.249 -1.0966,-3.36903 -0.0681,-0.59654 -0.08978,-10.32983 -0.06992,-31.388246 l 0.02879,-30.523575 0.210334,-0.782289 c 0.522415,-1.943011 1.698456,-3.710663 3.233146,-4.859591 0.346131,-0.259127 36.662325,-21.228464 52.568465,-30.353563 1.532903,-0.879402 2.351082,-1.194636 3.496418,-1.347127 0.649936,-0.08653 1.024991,-0.08653 1.674927,0 1.140836,0.151892 1.96612,0.46708 3.449817,1.317534 17.035153,9.764541 51.785273,29.788584 52.349133,30.165104 1.97762,1.320574 3.31098,3.489476 3.66112,5.955339 0.0773,0.544753 0.0982,8.962252 0.0781,31.499988 l -0.0275,30.756576 -0.21665,0.74562 c -0.28234,0.97169 -0.84086,2.15624 -1.35543,2.87467 -0.46762,0.65286 -1.48847,1.66015 -2.10939,2.08135 -0.71856,0.48743 -53.232988,30.71112 -53.82402,30.97741 -1.096476,0.494 -2.588128,0.71282 -3.762766,0.55198 z m 27.855422,-21.05546 c 22.28169,-12.82917 26.49044,-15.28443 26.855,-15.6664 0.80884,-0.84745 0.73272,2.45963 0.73272,-31.833417 V 54.119905 l -0.30291,-0.581611 c -0.1666,-0.319886 -0.4497,-0.69849 -0.62911,-0.841342 C 138.97081,52.5541 126.9338,45.59638 112.40132,37.23535 86.00722,22.049933 85.978114,22.033508 85.51261,22.061147 85.083072,22.08665 82.978697,23.279806 58.623904,37.306732 29.978505,53.804794 31.532772,52.865824 31.186387,53.882408 c -0.136928,0.40186 -0.150203,3.127361 -0.150203,30.837987 0,34.390875 -0.08561,30.926115 0.785088,31.772765 0.378391,0.36794 5.689621,3.46345 26.523026,15.45822 14.32744,8.24898 26.238624,15.10169 26.469299,15.22824 0.840825,0.46125 -1.323568,1.63889 27.680923,-15.06107 z"
       id="path5"
       transform="translate(-25.14,-16.14)" />
    <path
       style="fill:#ecb148;fill-opacity:1;stroke-width:0.0932018"
       d="m 47.468942,88.592906 c -0.163327,-0.09959 -0.341575,-0.264435 -0.396108,-0.366331 -0.131154,-0.245064 -0.120601,-0.755049 0.02065,-0.998128 0.06226,-0.107139 2.419943,-3.118706 5.239296,-6.692371 3.011477,-3.817191 5.126097,-6.576785 5.126097,-6.689594 0,-0.155014 -0.961002,-0.756367 -4.986294,-3.120206 -2.742462,-1.610501 -5.101631,-3.053276 -5.242599,-3.206167 -0.545198,-0.591312 -0.182893,-1.535231 0.629112,-1.639036 0.353774,-0.04523 0.636893,0.107605 5.545504,2.993515 3.651461,2.146795 5.273835,3.150919 5.516596,3.414344 0.666855,0.723615 0.813747,1.893925 0.33797,2.692663 -0.118723,0.199313 -2.543573,3.319375 -5.388557,6.933471 -3.589146,4.559435 -5.262607,6.615246 -5.466388,6.715344 -0.385204,0.189212 -0.57601,0.181562 -0.935284,-0.0375 z"
       id="path6"
       transform="translate(-25.14,-16.14)" />
    <path
       style="fill:#ecb148;fill-opacity:1;stroke-width:0.0932018"
       d="m 65.46289,81.466328 c -0.399934,-0.176969 -0.594469,-0.489664 -0.594469,-0.955553 0,-0.277788 0.06166,-0.461069 0.209704,-0.623386 0.115337,-0.126453 2.901917,-1.722542 6.1924,-3.546864 6.62898,-3.675265 6.403401,-3.578332 6.981668,-3.000064 0.422544,0.422544 0.447082,0.967949 0.06058,1.346534 -0.290729,0.284773 -11.967211,6.781738 -12.325932,6.858327 -0.128152,0.02736 -0.363931,-0.0082 -0.523952,-0.07899 z"
       id="path7"
       transform="translate(-25.14,-16.14)" />
    <path
       style="fill:#5f94ce;fill-opacity:1;stroke-width:0.0932018"
       d="m 61.699562,126.56202 c -15.473784,-8.90898 -23.82515,-13.76807 -24.022753,-13.9772 l -0.302905,-0.32057 V 84.735547 57.206843 l 0.209704,-0.311089 c 0.170314,-0.252655 4.586354,-2.828598 23.510142,-13.713817 15.507077,-8.919882 23.386623,-13.402938 23.558113,-13.403353 0.16404,-3.97e-4 0.384177,0.115308 0.605811,0.318417 l 0.348138,0.31904 0.0466,26.965774 c 0.04624,26.7574 0.04804,26.968186 0.233005,27.278018 0.149656,0.25069 0.810404,0.675425 3.351692,2.154499 3.16565,1.842463 3.554978,2.125506 3.593872,2.612752 0.04443,0.556558 -0.01393,0.760897 -0.304939,1.067683 -0.194611,0.205165 -6.500726,3.887494 -17.638432,10.299603 -11.24788,6.47555 -17.423396,10.08209 -17.58575,10.2702 -0.348201,0.40344 -0.415436,0.8952 -0.191464,1.40038 0.09811,0.22131 0.237632,0.45003 0.310038,0.50829 0.263871,0.21228 27.543235,15.91233 27.882472,16.04716 0.31058,0.12344 0.388433,0.12313 0.699013,-0.003 0.192229,-0.0779 8.800576,-5.01609 19.129661,-10.97378 10.32908,-5.95769 18.90598,-10.85222 19.05976,-10.87675 0.27474,-0.0438 1.0844,0.39865 7.22254,3.94696 0.47764,0.27612 0.87502,0.58139 1.00192,0.76969 0.27976,0.41514 0.28,0.99398 5.9e-4,1.40191 -0.16727,0.24421 -4.88671,2.9998 -23.32374,13.61827 -16.542794,9.52753 -23.193522,13.31247 -23.393637,13.31338 -0.202827,9.2e-4 -6.792945,-3.74877 -23.999451,-13.65535 z M 45.323982,97.105429 c 1.523667,-0.769308 35.780283,-19.882657 35.98175,-20.075881 0.166833,-0.160007 0.296275,-0.40844 0.345448,-0.663004 0.131216,-0.679288 0.09733,-32.873283 -0.035,-33.257505 -0.159014,-0.461681 -0.656896,-0.777815 -1.136461,-0.721604 -0.275911,0.03234 -5.059289,2.680969 -18.403912,10.190522 C 47.100492,61.005166 44.00858,62.778451 43.831563,63.041469 l -0.213138,0.31669 v 16.487555 c 0,17.998344 -0.03719,16.774787 0.523317,17.215684 0.297462,0.233985 0.771092,0.251624 1.182244,0.04403 z"
       id="path8"
       transform="translate(-25.14,-16.14)" />
    <path
       style="fill:#5f94ce;fill-opacity:1;stroke-width:0.0932018"
       d="m 77.730263,117.22068 c -7.578279,-4.35005 -7.596444,-4.36119 -7.811457,-4.79102 -0.26116,-0.52208 -0.213326,-0.94488 0.154206,-1.363 0.152557,-0.17355 6.262473,-3.74113 15.905607,-9.28726 8.611842,-4.953 15.750311,-9.108486 15.863261,-9.234412 0.11295,-0.125927 0.24902,-0.386166 0.30238,-0.57831 0.13105,-0.471883 0.1354,-30.315391 0.004,-30.786647 -0.0509,-0.18322 -0.19605,-0.430371 -0.32256,-0.549224 -0.12651,-0.118853 -1.20329,-0.786792 -2.392826,-1.484307 -1.18954,-0.697516 -2.244076,-1.378756 -2.343413,-1.513868 -0.09934,-0.135112 -0.200782,-0.428697 -0.225433,-0.652412 -0.03603,-0.326969 6.52e-4,-0.473335 0.187001,-0.74618 0.338284,-0.495302 12.527851,-13.797637 12.819571,-13.989854 0.35775,-0.235722 0.7124,-0.203986 1.03606,0.09271 0.21018,0.192668 1.94452,3.837965 6.98528,14.681913 3.68812,7.934086 6.71317,14.51879 6.72232,14.632676 0.0443,0.551166 -0.0164,0.75071 -0.32088,1.055203 -0.48602,0.486023 -0.7341,0.442442 -2.17517,-0.382127 -1.58653,-0.907798 -2.07055,-0.929104 -2.51807,-0.110845 -0.15213,0.278153 -0.16557,1.247607 -0.20917,15.091251 l -0.0466,14.794003 -0.27961,0.26743 c -0.15378,0.14708 -7.6662,4.53069 -16.69426,9.74135 -12.952443,7.47568 -16.481109,9.47385 -16.729715,9.47354 -0.244812,-3.2e-4 -2.008686,-0.97258 -7.911002,-4.36061 z"
       id="path9"
       transform="translate(-25.14,-16.14)" />
  </g>
</svg>
